<svg width="249" height="77" viewBox="0 0 249 77" fill="none" xmlns="http://www.w3.org/2000/svg">
<path fill-rule="evenodd" clip-rule="evenodd" d="M109.706 24.269C107.306 24.269 104.457 24.7729 101.344 28.3459V18.3467C101.344 15.8207 99.2728 13.7659 96.7271 13.7659C94.1814 13.7659 92.1105 15.8207 92.1105 18.3467V50.9555C92.1105 53.4815 94.1814 55.5363 96.7271 55.5363C99.2728 55.5363 101.344 53.4815 101.344 50.9555V38.2994C101.344 34.6609 103.085 32.6519 106.257 32.6519C109.363 32.6519 110.999 34.602 110.999 38.2994V50.9555C110.999 53.4815 113.07 55.5363 115.615 55.5363C118.161 55.5363 120.232 53.4815 120.232 50.9555V35.6425C120.225 28.5226 116.295 24.269 109.706 24.269ZM136.219 24.4916C132.46 24.4916 129.479 24.9759 126.557 26.0622C125.04 26.625 124.025 28.0777 124.025 29.6745C124.025 31.8078 125.733 33.4765 127.916 33.4765C128.364 33.4765 128.74 33.4111 129.254 33.2409C131.029 32.6913 132.902 32.4295 134.992 32.4295C139.952 32.4295 141.007 35.1453 141.02 37.4422C139.299 36.886 137.129 36.3755 134.102 36.3755C126.214 36.3755 121.69 39.9551 121.69 46.2046V46.3159C121.69 51.9634 125.964 55.7589 132.321 55.7589C135.902 55.7589 138.771 54.6791 141.06 52.4673C141.449 54.0836 143.012 55.5429 145.412 55.5429C147.938 55.5429 149.917 53.6059 149.917 51.1323V37.632C149.917 33.3849 148.796 30.1129 146.573 27.9141C144.278 25.6434 140.796 24.4916 136.219 24.4916ZM134.88 49.1953C132.262 49.1953 130.639 47.965 130.639 45.9821V45.8709C130.639 43.5085 132.631 42.1604 136.107 42.1604C137.887 42.1604 139.662 42.5073 141.132 43.1355V44.3854C141.132 47.2124 138.56 49.1953 134.88 49.1953ZM162.289 28.4248C164.676 25.6305 167.618 24.2693 171.258 24.2693C178.203 24.2693 185.227 29.6551 185.227 39.9553V40.0666C185.227 44.811 183.756 48.829 180.979 51.6953C178.44 54.3195 174.991 55.7591 171.258 55.7591C167.664 55.7591 164.808 54.542 162.335 51.9505V59.8033C162.335 62.3293 160.264 64.3842 157.719 64.3842C155.173 64.3842 153.102 62.3293 153.102 59.8033V29.0727C153.102 26.5467 155.173 24.4918 157.719 24.4918C160.047 24.4918 161.972 26.2064 162.289 28.4248ZM176 39.9553C176 35.512 173.026 32.1549 169.082 32.1549C165.112 32.1549 162.223 35.4334 162.223 39.9553V40.0666C162.223 44.5885 165.105 47.8671 169.082 47.8671C173.092 47.8671 176 44.5885 176 40.0666V39.9553ZM205.513 24.2693C201.873 24.2693 198.931 25.6305 196.544 28.4248C196.227 26.2064 194.301 24.4918 191.973 24.4918C189.428 24.4918 187.357 26.5467 187.357 29.0727V59.8033C187.357 62.3293 189.428 64.3842 191.973 64.3842C194.519 64.3842 196.59 62.3293 196.59 59.8033V51.9505C199.063 54.542 201.919 55.7591 205.513 55.7591C209.246 55.7591 212.695 54.3195 215.234 51.6953C218.011 48.829 219.481 44.811 219.481 40.0666V39.9553C219.481 29.6551 212.458 24.2693 205.513 24.2693ZM203.337 32.1549C207.28 32.1549 210.255 35.512 210.255 39.9553V40.0666C210.255 44.5885 207.346 47.8671 203.337 47.8671C199.36 47.8671 196.478 44.5885 196.478 40.0666V39.9553C196.478 35.4334 199.366 32.1549 203.337 32.1549ZM240.078 27.9469C240.935 25.6827 242.465 24.4917 244.503 24.4917C246.963 24.4917 248.895 26.3567 248.889 28.7257C248.889 29.4128 248.665 30.4075 248.467 30.8656L238.053 55.6805C235.435 61.9693 232.705 64.2008 227.62 64.2008C225.826 64.2008 224.448 63.9652 222.865 63.4024C221.777 63.0098 219.943 61.9889 219.943 59.5676C219.943 57.1856 221.836 55.7655 223.663 55.7655C224.388 55.7655 224.823 55.8899 225.173 56.0077C225.892 56.2302 226.288 56.3218 226.835 56.3218C228.22 56.3218 228.8 56.0993 229.499 54.7708L229.71 54.2735L219.58 30.9833C219.35 30.4075 219.105 29.5175 219.105 28.8958C219.105 26.3829 221.064 24.4851 223.663 24.4851C225.806 24.4851 227.257 25.5976 228.088 27.888L234.188 44.163L240.078 27.9469Z" fill="white"/>
<path d="M66.7508 20.1634V46.9299C66.7508 57.5535 58.0177 66.1665 47.246 66.1665H45.2732L35.1986 76.0961C34.804 76.4853 34.2582 76.7317 33.6532 76.7317C33.0942 76.7317 32.5878 76.5307 32.1999 76.1934L32.0289 76.0248L32.0223 76.0183L22.0332 66.1665H20.0538C9.28864 66.1665 0.555557 57.5535 0.555557 46.9299V20.1634C0.555557 9.53985 9.28865 0.926834 20.0603 0.926834H47.246C58.0177 0.926834 66.7508 9.53985 66.7508 20.1634Z" fill="#FFD666"/>
<path d="M15.9678 38.0067C14.0475 38.0067 12.953 40.1647 14.0672 41.7229C18.3992 47.7928 25.5625 51.7502 33.6564 51.7502C41.7502 51.7502 48.907 47.7863 53.239 41.7229C54.3531 40.1647 53.2586 38.0067 51.3384 38.0067H15.9678Z" fill="white"/>
<path d="M27.2141 28.8208H15.6271V23.0573C15.6271 19.8757 18.2224 17.2939 21.4206 17.2939C24.6188 17.2939 27.2141 19.8757 27.2141 23.0573V28.8208Z" fill="white"/>
<path d="M51.6862 28.8208H40.0991V23.0573C40.0991 19.8757 42.6944 17.2939 45.8926 17.2939C49.0909 17.2939 51.6862 19.8757 51.6862 23.0573V28.8208Z" fill="white"/>
</svg>
